<svg width="17" height="15" viewBox="0 0 17 15" fill="none" xmlns="http://www.w3.org/2000/svg">
<path d="M4.10343 1L1.72412 3.53079V12.3886C1.72412 12.7242 1.89124 13.046 2.18871 13.2833C2.48618 13.5206 2.88964 13.654 3.31033 13.654H14.4138C14.8345 13.654 15.2379 13.5206 15.5354 13.2833C15.8329 13.046 16 12.7242 16 12.3886V3.53079L13.6207 1H4.10343Z" stroke="#A8A3A3" stroke-width="1.5" stroke-linecap="round" stroke-linejoin="round"/>
<path d="M1.72412 3.53079H16" stroke="#A8A3A3" stroke-width="1.5" stroke-linecap="round" stroke-linejoin="round"/>
<path d="M12.0345 6.06158C12.0345 6.73279 11.7003 7.37651 11.1053 7.85112C10.5104 8.32574 9.70349 8.59238 8.86211 8.59238C8.02073 8.59238 7.21382 8.32574 6.61888 7.85112C6.02393 7.37651 5.6897 6.73279 5.6897 6.06158" stroke="#A8A3A3" stroke-width="1.5" stroke-linecap="round" stroke-linejoin="round"/>
</svg>
