<svg width="22" height="20" viewBox="0 0 22 20" fill="none" xmlns="http://www.w3.org/2000/svg">
<path d="M18.9992 2.7938C18.526 2.31738 17.9642 1.93944 17.3459 1.68159C16.7276 1.42373 16.0648 1.29102 15.3955 1.29102C14.7262 1.29102 14.0635 1.42373 13.4452 1.68159C12.8268 1.93944 12.265 2.31738 11.7919 2.7938L10.8099 3.7821L9.82793 2.7938C8.87218 1.8319 7.57591 1.29151 6.22427 1.29151C4.87264 1.29151 3.57636 1.8319 2.62061 2.7938C1.66486 3.75571 1.12793 5.06032 1.12793 6.42065C1.12793 7.78099 1.66486 9.0856 2.62061 10.0475L3.60259 11.0358L10.8099 18.2895L18.0172 11.0358L18.9992 10.0475C19.4726 9.5713 19.8481 9.00589 20.1043 8.38359C20.3605 7.76128 20.4924 7.09427 20.4924 6.42065C20.4924 5.74704 20.3605 5.08003 20.1043 4.45772C19.8481 3.83542 19.4726 3.27001 18.9992 2.7938V2.7938Z" stroke="#706E6E" stroke-width="2" stroke-linecap="round" stroke-linejoin="round"/>
</svg>
