<svg width="14" height="14" viewBox="0 0 14 14" fill="none" xmlns="http://www.w3.org/2000/svg">
<path d="M9.16507 9.73999L10.2851 8.61999C10.4359 8.47101 10.6268 8.36903 10.8345 8.32643C11.0422 8.28382 11.2577 8.30243 11.4551 8.37999L12.8201 8.92499C13.0195 9.00593 13.1905 9.14408 13.3115 9.32204C13.4325 9.5 13.4981 9.70979 13.5001 9.92499V12.425C13.4989 12.5714 13.4681 12.716 13.4096 12.8502C13.3511 12.9844 13.266 13.1053 13.1595 13.2058C13.053 13.3062 12.9272 13.384 12.7899 13.4346C12.6525 13.4852 12.5063 13.5074 12.3601 13.5C2.79507 12.905 0.865067 4.80499 0.500067 1.70499C0.483123 1.55276 0.498604 1.39866 0.545491 1.25284C0.592378 1.10703 0.669608 0.972786 0.7721 0.858958C0.874593 0.74513 1.00003 0.654292 1.14015 0.592422C1.28027 0.530551 1.4319 0.49905 1.58507 0.49999H4.00007C4.21557 0.500628 4.42596 0.565724 4.60416 0.686905C4.78237 0.808086 4.92025 0.97981 5.00007 1.17999L5.54507 2.54499C5.62519 2.74152 5.64564 2.95731 5.60384 3.1654C5.56205 3.37348 5.45987 3.56464 5.31007 3.71499L4.19007 4.83499C4.19007 4.83499 4.83507 9.19999 9.16507 9.73999Z" fill="#FF6363"/>
</svg>
