<svg width="14" height="10" viewBox="0 0 14 10" fill="none" xmlns="http://www.w3.org/2000/svg">
<path d="M0.603027 1.70721L7.00063 4.90561L13.3982 1.70721C13.3745 1.29957 13.1959 0.916403 12.8989 0.636194C12.6019 0.355985 12.209 0.199937 11.8006 0.200012H2.20063C1.79229 0.199937 1.39939 0.355985 1.10237 0.636194C0.805354 0.916403 0.626711 1.29957 0.603027 1.70721Z" fill="#FF6363"/>
<path d="M13.4001 3.49442L7.0001 6.69442L0.600098 3.49442V8.20002C0.600098 8.62436 0.768669 9.03133 1.06873 9.33139C1.36878 9.63144 1.77575 9.80002 2.2001 9.80002H11.8001C12.2244 9.80002 12.6314 9.63144 12.9315 9.33139C13.2315 9.03133 13.4001 8.62436 13.4001 8.20002V3.49442Z" fill="#FF6363"/>
</svg>
