<svg width="15" height="19" viewBox="0 0 15 19" fill="none" xmlns="http://www.w3.org/2000/svg">
<path d="M7.53441 2.30254C8.15908 2.30254 8.76917 2.47392 9.28745 2.79427C9.80568 3.11457 10.2083 3.56904 10.4458 4.09928C10.6832 4.62939 10.7451 5.2122 10.6242 5.77438C10.5033 6.33664 10.2046 6.85426 9.76462 7.26129C9.32451 7.66841 8.76287 7.94643 8.15036 8.05913C7.53784 8.17183 6.90302 8.11393 6.32646 7.89302C5.74994 7.67212 5.25841 7.29851 4.91318 6.82057C4.56803 6.34276 4.38439 5.7819 4.38439 5.20889C4.38439 4.44071 4.71421 3.70224 5.3042 3.15649C5.89446 2.61049 6.69657 2.30254 7.53441 2.30254ZM7.53441 0.9C6.61638 0.9 5.7184 1.15178 4.95397 1.62426C4.18948 2.09678 3.5924 2.76917 3.23946 3.55735C2.88647 4.34565 2.79396 5.21358 2.97404 6.05103C3.1541 6.88839 3.59832 7.6564 4.24915 8.25844C4.89989 8.86039 5.72809 9.26956 6.62865 9.43526C7.52919 9.60096 8.4627 9.51597 9.31141 9.19078C10.1602 8.86557 10.8868 8.31439 11.3987 7.60578C11.9106 6.89706 12.1844 6.06293 12.1844 5.20889C12.1844 4.06348 11.6925 2.96671 10.8197 2.15935C9.94713 1.35222 8.76527 0.9 7.53441 0.9Z" fill="#A8A3A3" stroke="#A8A3A3" stroke-width="0.2"/>
<path d="M14.0344 17.9356H14.1344V17.8356V14.8292C14.1344 13.6838 13.6425 12.587 12.7697 11.7796C11.8971 10.9725 10.7153 10.5203 9.48442 10.5203H5.58442C4.35357 10.5203 3.17172 10.9725 2.29918 11.7796C1.42639 12.587 0.934424 13.6838 0.934424 14.8292V17.8356V17.9356H1.03442H2.33442H2.43442V17.8356V14.8292C2.43442 14.061 2.76425 13.3225 3.35423 12.7768C3.94448 12.2308 4.74659 11.9228 5.58442 11.9228H9.48442C10.3223 11.9228 11.1244 12.2308 11.7146 12.7768C12.3046 13.3225 12.6344 14.061 12.6344 14.8292V17.8356V17.9356H12.7344H14.0344Z" fill="#A8A3A3" stroke="#A8A3A3" stroke-width="0.2"/>
</svg>
